:SAMPLES-PER-SECOND 30
:FRAME-RANGE 1-744
:FULLY-SPECIFIED
:DEGREES
442
root  -2.944 37.0544 95.877 17.3773 -3.82597 -3.03169
RightUpLeg  -41.0132 8.03204 -2.18523
RightLeg  31.8083 0.377479 0.0126365
RightFoot  -4.88301 -0.149634 2.0628
RightToes  -5.28216e-011 1.2921e-014 -6.02303e-014
Spine  21.2983 -1.16756 3.27368
Spine1  9.55619 0.241328 -1.95114
HEad  9.84264 -0.371183 6.65295
LeftShoulder1  2.92906 -11.5836 -12.8774
LeftArm  -5.69886 -24.0546 -57.3202
LeftForeArm  15.9713 7.67625 -10.798
LeftHand  -0.0220266 4.4807 -0.34501
RightShoulder  3.02303 8.41703 19.4661
RightArm  -19.8326 39.097 58.797
RightForeArm  63.625 -5.25814 1.81573
RightHand  0.135439 -6.56317 -15.1587
LeftUpLeg  -40.0747 -10.4687 9.4192
LeftLeg  35.7673 -2.46207 -1.53216
LeftFoot  -20.1747 -0.474346 -7.69684
LeftToes  -9.4837e-011 -7.11147e-011 -1.07582e-011
443
root  -2.92897 37.6536 96.1852 16.9371 -5.36107 -3.32619
RightUpLeg  -37.2699 8.79504 -1.8912
RightLeg  26.2787 1.2519 0.44911
RightFoot  -2.74323 -0.175712 2.08797
RightToes  -5.28216e-011 1.2921e-014 -6.02303e-014
Spine  19.053 -0.875339 3.50839
Spine1  9.02362 0.377567 -1.86849
HEad  12.6671 -1.71762 6.88513
LeftShoulder1  2.77808 -10.3141 -13.6828
LeftArm  -6.03067 -19.5159 -58.1009
LeftForeArm  17.9394 7.66567 -10.7626
LeftHand  -0.0258962 4.38781 0.259383
RightShoulder  2.85375 7.67371 19.681
RightArm  -20.8555 33.6671 58.4541
RightForeArm  64.9763 -5.25659 2.09527
RightHand  0.149129 -6.65328 -15.3323
LeftUpLeg  -36.0622 -12.3109 9.95819
LeftLeg  30.1961 -2.90501 -1.47369
LeftFoot  -16.8925 -0.306848 -8.4026
LeftToes  -9.4837e-011 -7.11147e-011 -1.07582e-011
444
root  -2.96625 38.0554 96.4871 16.1904 -7.43602 -3.64449
RightUpLeg  -33.8164 9.35851 -1.28196
RightLeg  21.9297 2.61843 0.946574
RightFoot  -1.40357 -0.203226 2.2264
RightToes  -5.28216e-011 1.2921e-014 -6.02303e-014
Spine  16.7535 -0.619689 3.52308
Spine1  9.10472 0.659637 -2.24056
HEad  14.1621 -2.89808 6.96782
LeftShoulder1  2.62783 -9.29867 -14.1827
LeftArm  -6.12669 -14.8711 -58.1722
LeftForeArm  19.309 7.36187 -10.8318
LeftHand  -0.0298377 4.49391 0.790964
RightShoulder  2.82615 7.10287 20.9243
RightArm  -20.9965 29.5609 56.9139
RightForeArm  66.0014 -5.35592 2.91042
RightHand  0.161895 -6.7513 -15.3347
LeftUpLeg  -32.2103 -10.3319 9.20675
LeftLeg  25.8211 -2.33451 -0.887528
LeftFoot  -11.7893 0.0432043 -6.99202
LeftToes  -9.4837e-011 -7.11147e-011 -1.07582e-011
445
root  -3.05773 38.2933 96.7815 15.5691 -9.29649 -3.79979
RightUpLeg  -31.2414 9.85174 -1.0595
RightLeg  19.2512 4.15964 1.40637
RightFoot  -2.05118 -0.404397 4.80121
RightToes  -5.28216e-011 1.2921e-014 -6.02303e-014
Spine  14.3679 -0.638767 3.07439
Spine1  9.17859 0.594675 -2.39368
HEad  15.3449 -4.74344 7.20729
LeftShoulder1  2.52482 -8.43631 -14.9027
LeftArm  -5.26562 -10.5991 -57.4426
LeftForeArm  20.2498 6.22793 -11.4292
LeftHand  -0.0317449 4.33358 0.99551
RightShoulder  2.78517 6.64232 21.8244
RightArm  -21.2152 25.7494 55.953
RightForeArm  67.4679 -5.39017 3.44314
RightHand  0.180049 -6.89596 -15.2898
LeftUpLeg  -29.3206 -7.84527 8.46768
LeftLeg  23.3107 -2.88189 -1.02113
LeftFoot  -10.0472 0.128632 -6.05834
LeftToes  -9.4837e-011 -7.11147e-011 -1.07582e-011
446
root  -3.20928 38.3217 97.0816 14.8584 -11.2726 -3.32031
RightUpLeg  -29.8856 9.64572 -1.55832
RightLeg  19.3947 6.69797 2.4098
RightFoot  -6.4552 -0.451223 9.52271
RightToes  -5.28216e-011 1.2921e-014 -6.02303e-014
Spine  12.2625 -0.822442 1.40746
Spine1  9.03273 0.314323 -2.4085
HEad  15.8943 -7.83971 7.838
LeftShoulder1  2.40176 -7.56993 -15.5408
LeftArm  -4.63132 -6.89011 -56.5931
LeftForeArm  21.656 5.48714 -11.8804
LeftHand  -0.0335583 4.39951 1.19534
RightShoulder  2.72506 6.06212 22.9816
RightArm  -20.9657 23.0214 54.7725
RightForeArm  68.6286 -5.45682 4.10942
RightHand  0.211699 -7.13127 -15.3596
LeftUpLeg  -27.4034 -6.44302 7.46873
LeftLeg  22.7736 -2.47642 -0.797075
LeftFoot  -10.0467 0.121699 -5.44215
LeftToes  -9.4837e-011 -7.11147e-011 -1.07582e-011
447
root  -3.39509 38.2892 97.3691 14.1092 -13.3673 -3.02039
RightUpLeg  -29.1988 7.50382 -1.33646
RightLeg  21.359 8.92915 3.62933
RightFoot  -10.6464 -0.152327 13.0879
RightToes  -5.28216e-011 1.2921e-014 -6.02303e-014
Spine  10.4669 -1.10976 0.035202
Spine1  8.94512 -0.000255475 -2.5313
HEad  15.6276 -11.5404 8.34516
LeftShoulder1  2.34307 -7.01481 -16.2177
LeftArm  -4.35987 -3.8937 -55.5702
LeftForeArm  22.556 5.3584 -12.1155
LeftHand  -0.03356 4.49449 1.34089
RightShoulder  2.66694 5.68425 23.588
RightArm  -21.3742 20.4678 54.1033
RightForeArm  68.9548 -5.46071 4.20844
RightHand  0.229854 -7.21721 -15.7622
LeftUpLeg  -25.7717 -5.46032 6.8546
LeftLeg  22.9703 -1.55314 -0.370199
LeftFoot  -10.5731 0.0965623 -4.95304
LeftToes  -9.4837e-011 -7.11147e-011 -1.07582e-011
